<svg xmlns="http://www.w3.org/2000/svg" viewBox="0 0 1200 630" font-family="'Segoe UI', system-ui, sans-serif">
  <defs>
    <linearGradient id="bg" x1="0" y1="0" x2="0" y2="1">
      <stop offset="0" stop-color="#ffffff"/>
      <stop offset="1" stop-color="#f4f6fb"/>
    </linearGradient>
    <linearGradient id="tile" x1="0" y1="0" x2="1" y2="1">
      <stop offset="0" stop-color="#3b82f6"/>
      <stop offset="1" stop-color="#2563eb"/>
    </linearGradient>
  </defs>
  <rect width="1200" height="630" fill="url(#bg)"/>
  <rect width="1200" height="8" fill="#2563eb"/>
  <g transform="translate(90 248)">
    <rect width="120" height="120" rx="28" fill="url(#tile)"/>
    <g fill="none" stroke="#ffffff" stroke-width="2.2" stroke-linecap="round" stroke-linejoin="round" transform="translate(24 24) scale(3)">
      <path d="M5 8l6 6"/>
      <path d="M4 14l6-6 2-3"/>
      <path d="M2 5h12"/>
      <path d="M7 2h1"/>
      <path d="M22 22l-5-10-5 10"/>
      <path d="M14 18h6"/>
    </g>
  </g>
  <text x="240" y="298" fill="#1f2430" font-size="82" font-weight="800" letter-spacing="-2">AI Translator</text>
  <text x="242" y="360" fill="#6b7280" font-size="34" font-weight="500">240+ languages · AI tools · chat · on the edge</text>
  <g transform="translate(242 420)" font-size="26" font-weight="600">
    <rect x="0" y="0" width="200" height="56" rx="12" fill="#ffffff" stroke="#dfe1e6"/>
    <text x="30" y="36" fill="#1f2430">6 Tone Modes</text>
    <rect x="224" y="0" width="180" height="56" rx="12" fill="#ffffff" stroke="#dfe1e6"/>
    <text x="252" y="36" fill="#1f2430">12 AI Tools</text>
    <rect x="428" y="0" width="150" height="56" rx="12" fill="#ffffff" stroke="#dfe1e6"/>
    <text x="456" y="36" fill="#1f2430">AI Chat</text>
  </g>
  <text x="242" y="548" fill="#9ca3af" font-size="24" font-weight="600">Powered by OpenAI · Cloudflare Workers</text>
</svg>
